
	<svg xmlns="http://www.w3.org/2000/svg" xmlns:xlink="http://www.w3.org/1999/xlink" version="1.1" width="128" height="128" viewBox="0 0 100 100">


		<defs>
			<g id="background">
<path fill="url(#background-gradient)" stroke="none" d=" M 100 18.4 Q 100 10.8 94.6 5.4 89.05 0 81.6 0 L 18.4 0 Q 10.8 0 5.4 5.4 0 10.8 0 18.4 L 0 81.6 Q 0 89.05 5.4 94.6 10.8 100 18.4 100 L 81.6 100 Q 89.05 100 94.6 94.6 100 89.05 100 81.6 L 100 18.4 Z"/>
</g><g id="middle-1">
<path fill="#000000" fill-opacity="0.4" stroke="none" d=" M 100 75.4 Q 99.8 82.4 94.6 87.75 89.2 93.15 81.6 93.15 L 18.4 93.15 Q 10.8 93.15 5.4 87.75 0.2 82.5 0 75.4 L 0 81.65 Q 0 89.2 5.4 94.6 10.8 100 18.4 100 L 81.6 100 Q 89.2 100 94.6 94.6 100 89.1 100 81.65 L 100 75.4 Z"/>
</g><mask id="mask">
<path fill="#FFFFFF" stroke="none" d=" M 100 18.4 Q 100 10.8 94.6 5.4 89.05 0 81.6 0 L 18.4 0 Q 10.8 0 5.4 5.4 0 10.8 0 18.4 L 0 75.4 Q 0.2 82.5 5.4 87.75 10.8 93.15 18.4 93.15 L 81.6 93.15 Q 89.2 93.15 94.6 87.75 99.8 82.4 100 75.4 L 100 18.4 Z"/>
</mask>
			
	<linearGradient id="background-gradient" x1="0" y1="0" y2="1" x2="0" >
		<stop stop-color="#ffd400" offset="0%"/>
		<stop stop-color="#ffd400" offset="100%"/>
	</linearGradient>

			
			
			<g transform="scale(0.6524944401671181) translate(-73.36471939086914 -73.37098693847656)" id="picture">
    <path d="M112.991 193.766c0-3.379.307-6.45.921-9.521.615-3.071 1.229-5.528 1.843-7.371h19.35c0 5.528.306 10.135.92 13.82.615 3.686 1.536 6.45 2.765 8.907 1.228 2.15 2.764 3.686 4.914 4.607 2.15.922 4.607 1.536 7.678 1.536 3.993 0 7.064-1.229 8.907-3.379 1.843-2.457 2.764-4.914 2.764-7.985 0-1.536-.307-3.071-.614-4.607s-.922-3.071-1.843-4.3c-.921-1.535-1.843-3.07-3.071-4.607s-2.457-3.07-3.993-4.914l-20.27-23.649c-2.765-3.378-5.222-6.45-7.679-9.828s-4.607-6.757-6.45-10.442c-1.842-3.686-3.378-7.371-4.606-11.364a41.044 41.044 0 0 1-1.843-12.285c0-5.835.921-10.75 3.071-15.05 2.15-4.3 4.607-7.985 7.985-10.749 3.379-2.764 7.372-4.914 11.671-6.45 5.222-2.15 9.829-2.764 14.743-2.764 5.528 0 10.442.615 14.742 1.843 4.3 1.229 7.985 3.378 11.364 5.836 3.07 2.764 5.528 5.835 7.064 9.828 1.535 3.992 2.457 8.292 2.457 13.513a56.55 56.55 0 0 1-.922 10.136c-.614 3.378-1.228 6.142-1.843 8.292h-19.042c0-4.914-.307-9.214-.614-12.9-.307-3.685-.921-6.756-2.15-9.213a12.903 12.903 0 0 0-3.992-5.529c-1.843-1.228-3.993-1.842-6.757-1.842-2.457 0-4.3.307-6.143 1.228-1.536.614-2.764 1.843-3.993 3.071-.92 1.229-1.535 2.765-2.15 3.993-.307 1.536-.614 3.071-.614 4.607 0 3.379.922 6.757 2.457 9.828s3.993 6.143 6.757 9.828l22.113 25.8c1.536 1.842 3.379 4.299 5.529 7.063 2.15 2.764 3.992 5.836 6.142 9.214 1.843 3.378 3.379 7.064 4.914 11.057 1.229 3.992 1.843 8.292 1.843 12.592 0 5.221-.921 10.135-2.457 14.435a26.992 26.992 0 0 1-7.37 11.057c-3.38 3.071-7.372 5.528-11.979 7.064-4.914 1.535-10.135 2.457-16.278 2.457-4.914 0-9.828-.615-14.128-1.843-4.3-1.229-8.292-3.071-11.67-5.528-3.38-2.457-5.836-5.836-7.679-10.136-1.843-3.992-2.764-8.906-2.764-15.356z" fill="#000333"/>
</g>
			
		</defs>

		

			<use xlink:href="#background" fill="url(#background-gradient)" />

		<use xlink:href="#middle-1" />

			<g mask="url(#mask)">
				<g transform="
				        translate(
                                50 45
)
                            translate(0 0)  scale(0.5)  
                            translate(
                                -50 -45
)">
						<use xlink:href="#picture"   />
				</g>
			</g>

		



	</svg>
